<svg width="187" height="165" viewBox="0 0 187 165" fill="none" xmlns="http://www.w3.org/2000/svg">
<rect x="0.5" y="0.5" width="186" height="164" rx="19.5" fill="#0D1B2A" stroke="#D3D3D3"/>
<path d="M79.5 120H71.5V136H79.5V128V120ZM112 100.5L118.638 96.0346L112.267 86.5644L105.538 95.7837L112 100.5ZM147 128V136H155V128H147ZM155 106.5V98.5H139V106.5H147H155ZM139 78C139 82.4183 142.582 86 147 86C151.418 86 155 82.4183 155 78H147H139ZM147 38H155V30H147V38ZM40.5 38V30H32.5V38H40.5ZM40.5 128H32.5V136H40.5V128ZM51 136C55.4183 136 59 132.418 59 128C59 123.582 55.4183 120 51 120V128V136ZM79.5 128V136C85.2057 136 90.5191 133.02 94.4542 130.225C98.6684 127.232 102.74 123.392 106.194 119.778C109.683 116.127 112.733 112.506 114.901 109.814C115.989 108.463 116.866 107.332 117.476 106.531C117.781 106.13 118.021 105.811 118.187 105.588C118.27 105.476 118.335 105.388 118.382 105.326C118.405 105.295 118.423 105.27 118.436 105.251C118.443 105.242 118.448 105.235 118.453 105.229C118.455 105.226 118.457 105.223 118.458 105.221C118.459 105.22 118.46 105.219 118.46 105.219C118.461 105.217 118.462 105.216 112 100.5C105.538 95.7837 105.539 95.7828 105.539 95.7821C105.539 95.782 105.54 95.7814 105.54 95.7812C105.54 95.7808 105.54 95.7808 105.54 95.7812C105.539 95.782 105.538 95.7844 105.535 95.7885C105.529 95.7966 105.518 95.8112 105.503 95.832C105.472 95.8735 105.423 95.94 105.356 96.0297C105.222 96.209 105.018 96.481 104.751 96.8323C104.215 97.5355 103.426 98.5531 102.439 99.7796C100.454 102.244 97.7097 105.498 94.6276 108.722C91.5105 111.983 88.2333 115.018 85.1886 117.181C81.8648 119.542 80.0086 120 79.5 120V128ZM112 100.5C105.362 104.965 105.363 104.967 105.364 104.968C105.365 104.969 105.366 104.971 105.367 104.972C105.368 104.975 105.371 104.978 105.373 104.981C105.378 104.988 105.383 104.997 105.39 105.007C105.404 105.028 105.423 105.055 105.446 105.088C105.491 105.155 105.555 105.248 105.636 105.364C105.797 105.597 106.027 105.926 106.321 106.337C106.909 107.158 107.755 108.312 108.818 109.688C110.935 112.428 113.963 116.112 117.578 119.828C121.164 123.514 125.509 127.422 130.278 130.454C134.962 133.432 140.731 136 147 136V128V120C145.019 120 142.288 119.13 138.863 116.952C135.523 114.828 132.149 111.861 129.047 108.672C125.974 105.513 123.346 102.322 121.479 99.9053C120.55 98.7034 119.821 97.7088 119.333 97.0261C119.089 96.6852 118.906 96.4232 118.788 96.2533C118.729 96.1684 118.687 96.1066 118.662 96.0695C118.649 96.051 118.641 96.0387 118.637 96.0328C118.635 96.0299 118.634 96.0285 118.634 96.0288C118.634 96.029 118.634 96.0295 118.635 96.0305C118.635 96.0309 118.636 96.032 118.636 96.0322C118.637 96.0334 118.638 96.0346 112 100.5ZM147 128H155V106.5H147H139V128H147ZM147 78H155V38H147H139V78H147ZM147 38V30H40.5V38V46H147V38ZM40.5 38H32.5V128H40.5H48.5V38H40.5ZM40.5 128V136H51V128V120H40.5V128Z" fill="#F8F9FA"/>
</svg>
