<svg width="439" height="129" viewBox="0 0 439 129" fill="none" xmlns="http://www.w3.org/2000/svg">
<path d="M47 90H39V106H47V98V90ZM79.5 70.5L86.1378 66.0346L79.7669 56.5644L73.0381 65.7837L79.5 70.5ZM114.5 98V106H122.5V98H114.5ZM122.5 76.5V68.5H106.5V76.5H114.5H122.5ZM106.5 48C106.5 52.4183 110.082 56 114.5 56C118.918 56 122.5 52.4183 122.5 48H114.5H106.5ZM114.5 8H122.5V0H114.5V8ZM8 8V0H0V8H8ZM8 98H0V106H8V98ZM18.5 106C22.9183 106 26.5 102.418 26.5 98C26.5 93.5817 22.9183 90 18.5 90V98V106ZM47 98V106C52.7057 106 58.0191 103.02 61.9542 100.225C66.1684 97.2317 70.2395 93.3916 73.6938 89.7777C77.1832 86.1272 80.2333 82.506 82.4008 79.8141C83.4891 78.4626 84.3657 77.3317 84.976 76.531C85.2813 76.1303 85.5207 75.8115 85.6871 75.588C85.7704 75.4763 85.8354 75.3883 85.8815 75.3258C85.9045 75.2946 85.9228 75.2697 85.9363 75.2514C85.943 75.2422 85.9485 75.2347 85.9528 75.2288C85.9549 75.2259 85.9567 75.2234 85.9583 75.2213C85.959 75.2203 85.9599 75.219 85.9603 75.2185C85.9611 75.2174 85.9619 75.2163 79.5 70.5C73.0381 65.7837 73.0387 65.7828 73.0392 65.7821C73.0393 65.782 73.0398 65.7814 73.0399 65.7812C73.0402 65.7808 73.0402 65.7808 73.0399 65.7812C73.0393 65.782 73.0375 65.7844 73.0345 65.7885C73.0286 65.7966 73.0179 65.8112 73.0026 65.832C72.9719 65.8735 72.9228 65.94 72.856 66.0297C72.7224 66.209 72.5183 66.481 72.2506 66.8323C71.7147 67.5355 70.9261 68.5531 69.9385 69.7796C67.9542 72.244 65.2097 75.4978 62.1276 78.7223C59.0105 81.9834 55.7333 85.0183 52.6886 87.1811C49.3648 89.5421 47.5086 90 47 90V98ZM79.5 70.5C72.8622 74.9654 72.8632 74.9669 72.8642 74.9684C72.8647 74.9691 72.8658 74.9707 72.8667 74.972C72.8685 74.9747 72.8705 74.9777 72.8729 74.9812C72.8776 74.9881 72.8834 74.9968 72.8903 75.007C72.9043 75.0276 72.9227 75.0547 72.9456 75.0882C72.9913 75.1553 73.0548 75.2479 73.1355 75.3644C73.2969 75.5973 73.5272 75.9261 73.8213 76.3371C74.409 77.1584 75.2547 78.3123 76.3182 79.6885C78.4349 82.4278 81.4632 86.112 85.078 89.8281C88.6636 93.5142 93.0086 97.4216 97.7778 100.454C102.462 103.432 108.231 106 114.5 106V98V90C112.519 90 109.788 89.1301 106.363 86.9522C103.023 84.8284 99.6489 81.8608 96.547 78.6719C93.4743 75.513 90.8463 72.3222 88.9787 69.9053C88.05 68.7034 87.3215 67.7088 86.833 67.0261C86.589 66.6852 86.4057 66.4232 86.288 66.2533C86.2292 66.1684 86.1869 66.1066 86.1616 66.0695C86.149 66.051 86.1406 66.0387 86.1366 66.0328C86.1346 66.0299 86.1337 66.0285 86.1339 66.0288C86.134 66.029 86.1344 66.0295 86.135 66.0305C86.1353 66.0309 86.136 66.032 86.1362 66.0322C86.1369 66.0334 86.1378 66.0346 79.5 70.5ZM114.5 98H122.5V76.5H114.5H106.5V98H114.5ZM114.5 48H122.5V8H114.5H106.5V48H114.5ZM114.5 8V0H8V8V16H114.5V8ZM8 8H0V98H8H16V8H8ZM8 98V106H18.5V98V90H8V98Z" fill="#0D1B2A"/>
<path d="M143.636 106V36.1818H169.818C175.182 36.1818 179.682 37.1818 183.318 39.1818C186.977 41.1818 189.739 43.9318 191.602 47.4318C193.489 50.9091 194.432 54.8636 194.432 59.2955C194.432 63.7727 193.489 67.75 191.602 71.2273C189.716 74.7045 186.932 77.4432 183.25 79.4432C179.568 81.4205 175.034 82.4091 169.648 82.4091H152.295V72.0114H167.943C171.08 72.0114 173.648 71.4659 175.648 70.375C177.648 69.2841 179.125 67.7841 180.08 65.875C181.057 63.9659 181.545 61.7727 181.545 59.2955C181.545 56.8182 181.057 54.6364 180.08 52.75C179.125 50.8636 177.636 49.3977 175.614 48.3523C173.614 47.2841 171.034 46.75 167.875 46.75H156.284V106H143.636ZM204.872 106V53.6364H217.213V106H204.872ZM211.077 46.2045C209.122 46.2045 207.44 45.5568 206.031 44.2614C204.622 42.9432 203.918 41.3636 203.918 39.5227C203.918 37.6591 204.622 36.0795 206.031 34.7841C207.44 33.4659 209.122 32.8068 211.077 32.8068C213.054 32.8068 214.736 33.4659 216.122 34.7841C217.531 36.0795 218.236 37.6591 218.236 39.5227C218.236 41.3636 217.531 42.9432 216.122 44.2614C214.736 45.5568 213.054 46.2045 211.077 46.2045ZM242.244 36.1818V106H229.903V36.1818H242.244ZM267.276 36.1818V106H254.935V36.1818H267.276ZM295.034 107.057C291.716 107.057 288.727 106.466 286.068 105.284C283.432 104.08 281.341 102.307 279.795 99.9659C278.273 97.625 277.511 94.7386 277.511 91.3068C277.511 88.3523 278.057 85.9091 279.148 83.9773C280.239 82.0455 281.727 80.5 283.614 79.3409C285.5 78.1818 287.625 77.3068 289.989 76.7159C292.375 76.1023 294.841 75.6591 297.386 75.3864C300.455 75.0682 302.943 74.7841 304.852 74.5341C306.761 74.2614 308.148 73.8523 309.011 73.3068C309.898 72.7386 310.341 71.8636 310.341 70.6818V70.4773C310.341 67.9091 309.58 65.9205 308.057 64.5114C306.534 63.1023 304.341 62.3977 301.477 62.3977C298.455 62.3977 296.057 63.0568 294.284 64.375C292.534 65.6932 291.352 67.25 290.739 69.0455L279.216 67.4091C280.125 64.2273 281.625 61.5682 283.716 59.4318C285.807 57.2727 288.364 55.6591 291.386 54.5909C294.409 53.5 297.75 52.9545 301.409 52.9545C303.932 52.9545 306.443 53.25 308.943 53.8409C311.443 54.4318 313.727 55.4091 315.795 56.7727C317.864 58.1136 319.523 59.9432 320.773 62.2614C322.045 64.5795 322.682 67.4773 322.682 70.9545V106H310.818V98.8068H310.409C309.659 100.261 308.602 101.625 307.239 102.898C305.898 104.148 304.205 105.159 302.159 105.932C300.136 106.682 297.761 107.057 295.034 107.057ZM298.239 97.9886C300.716 97.9886 302.864 97.5 304.682 96.5227C306.5 95.5227 307.898 94.2045 308.875 92.5682C309.875 90.9318 310.375 89.1477 310.375 87.2159V81.0455C309.989 81.3636 309.33 81.6591 308.398 81.9318C307.489 82.2045 306.466 82.4432 305.33 82.6477C304.193 82.8523 303.068 83.0341 301.955 83.1932C300.841 83.3523 299.875 83.4886 299.057 83.6023C297.216 83.8523 295.568 84.2614 294.114 84.8295C292.659 85.3977 291.511 86.1932 290.67 87.2159C289.83 88.2159 289.409 89.5114 289.409 91.1023C289.409 93.375 290.239 95.0909 291.898 96.25C293.557 97.4091 295.67 97.9886 298.239 97.9886ZM335.091 106V53.6364H347.057V62.3636H347.602C348.557 59.3409 350.193 57.0114 352.511 55.375C354.852 53.7159 357.523 52.8864 360.523 52.8864C361.205 52.8864 361.966 52.9205 362.807 52.9886C363.67 53.0341 364.386 53.1136 364.955 53.2273V64.5795C364.432 64.3977 363.602 64.2386 362.466 64.1023C361.352 63.9432 360.273 63.8636 359.227 63.8636C356.977 63.8636 354.955 64.3523 353.159 65.3295C351.386 66.2841 349.989 67.6136 348.966 69.3182C347.943 71.0227 347.432 72.9886 347.432 75.2159V106H335.091ZM373.699 106V36.1818H386.347V65.7386H418.699V36.1818H431.381V106H418.699V76.3409H386.347V106H373.699Z" fill="#0D1B2A"/>
</svg>
