<svg width="123" height="106" viewBox="0 0 123 106" fill="none" xmlns="http://www.w3.org/2000/svg">
<path d="M47 90H39V106H47V98V90ZM79.5 70.5L86.1378 66.0346L79.7669 56.5644L73.0381 65.7837L79.5 70.5ZM114.5 98V106H122.5V98H114.5ZM122.5 76.5V68.5H106.5V76.5H114.5H122.5ZM106.5 48C106.5 52.4183 110.082 56 114.5 56C118.918 56 122.5 52.4183 122.5 48H114.5H106.5ZM114.5 8H122.5V0H114.5V8ZM8 8V0H0V8H8ZM8 98H0V106H8V98ZM18.5 106C22.9183 106 26.5 102.418 26.5 98C26.5 93.5817 22.9183 90 18.5 90V98V106ZM47 98V106C52.7057 106 58.0191 103.02 61.9542 100.225C66.1684 97.2317 70.2395 93.3916 73.6938 89.7777C77.1832 86.1272 80.2333 82.506 82.4008 79.8141C83.4891 78.4626 84.3657 77.3317 84.976 76.531C85.2813 76.1303 85.5207 75.8115 85.6871 75.588C85.7704 75.4763 85.8354 75.3883 85.8815 75.3258C85.9045 75.2946 85.9228 75.2697 85.9363 75.2514C85.943 75.2422 85.9485 75.2347 85.9528 75.2288C85.9549 75.2259 85.9567 75.2234 85.9583 75.2213C85.959 75.2203 85.9599 75.219 85.9603 75.2185C85.9611 75.2174 85.9619 75.2163 79.5 70.5C73.0381 65.7837 73.0387 65.7828 73.0392 65.7821C73.0393 65.782 73.0398 65.7814 73.0399 65.7812C73.0402 65.7808 73.0402 65.7808 73.0399 65.7812C73.0393 65.782 73.0375 65.7844 73.0345 65.7885C73.0286 65.7966 73.0179 65.8112 73.0026 65.832C72.9719 65.8735 72.9228 65.94 72.856 66.0297C72.7224 66.209 72.5183 66.481 72.2506 66.8323C71.7147 67.5355 70.9261 68.5531 69.9385 69.7796C67.9542 72.244 65.2097 75.4978 62.1276 78.7223C59.0105 81.9834 55.7333 85.0183 52.6886 87.1811C49.3648 89.5421 47.5086 90 47 90V98ZM79.5 70.5C72.8622 74.9654 72.8632 74.9669 72.8642 74.9684C72.8647 74.9691 72.8658 74.9707 72.8667 74.972C72.8685 74.9747 72.8705 74.9777 72.8729 74.9812C72.8776 74.9881 72.8834 74.9968 72.8903 75.007C72.9043 75.0276 72.9227 75.0547 72.9456 75.0882C72.9913 75.1553 73.0548 75.2479 73.1355 75.3644C73.2969 75.5973 73.5272 75.9261 73.8213 76.3371C74.409 77.1584 75.2547 78.3123 76.3182 79.6885C78.4349 82.4278 81.4632 86.112 85.078 89.8281C88.6636 93.5142 93.0086 97.4216 97.7778 100.454C102.462 103.432 108.231 106 114.5 106V98V90C112.519 90 109.788 89.1301 106.363 86.9522C103.023 84.8284 99.6489 81.8608 96.547 78.6719C93.4743 75.513 90.8463 72.3222 88.9787 69.9053C88.05 68.7034 87.3215 67.7088 86.833 67.0261C86.589 66.6852 86.4057 66.4232 86.288 66.2533C86.2292 66.1684 86.1869 66.1066 86.1616 66.0695C86.149 66.051 86.1406 66.0387 86.1366 66.0328C86.1346 66.0299 86.1337 66.0285 86.1339 66.0288C86.134 66.029 86.1344 66.0295 86.135 66.0305C86.1353 66.0309 86.136 66.032 86.1362 66.0322C86.1369 66.0334 86.1378 66.0346 79.5 70.5ZM114.5 98H122.5V76.5H114.5H106.5V98H114.5ZM114.5 48H122.5V8H114.5H106.5V48H114.5ZM114.5 8V0H8V8V16H114.5V8ZM8 8H0V98H8H16V8H8ZM8 98V106H18.5V98V90H8V98Z" fill="#0D1B2A"/>
</svg>
